<?xml version="1.0" encoding="UTF-8" standalone="no"?>
<svg
   xmlns:osb="http://www.openswatchbook.org/uri/2009/osb"
   xmlns:dc="http://purl.org/dc/elements/1.1/"
   xmlns:cc="http://creativecommons.org/ns#"
   xmlns:rdf="http://www.w3.org/1999/02/22-rdf-syntax-ns#"
   xmlns:svg="http://www.w3.org/2000/svg"
   xmlns="http://www.w3.org/2000/svg"
   xmlns:sodipodi="http://sodipodi.sourceforge.net/DTD/sodipodi-0.dtd"
   xmlns:inkscape="http://www.inkscape.org/namespaces/inkscape"
   inkscape:version="1.0 (4035a4fb49, 2020-05-01)"
   shape-rendering="crispEdges"
   sodipodi:docname="k-logo.svg"
   id="svg8"
   version="1.1"
   viewBox="0 0 130 130"
   height="130mm"
   width="130mm">
  <defs
     id="defs2">
    <linearGradient
       osb:paint="solid"
       id="linearGradient2913">
      <stop
         id="stop2911"
         offset="0"
         style="stop-color:#ac5e00;stop-opacity:1;" />
    </linearGradient>
  </defs>
  <sodipodi:namedview
     inkscape:showpageshadow="true"
     borderlayer="false"
     showborder="true"
     inkscape:pagecheckerboard="false"
     inkscape:window-maximized="1"
     inkscape:window-y="-8"
     inkscape:window-x="1912"
     inkscape:window-height="1009"
     inkscape:window-width="1920"
     showgrid="false"
     inkscape:document-rotation="0"
     inkscape:current-layer="g891"
     inkscape:document-units="mm"
     inkscape:cy="386.75166"
     inkscape:cx="434.63515"
     inkscape:zoom="0.7"
     inkscape:pageshadow="2"
     inkscape:pageopacity="1"
     borderopacity="1.0"
     bordercolor="#666666"
     pagecolor="#ffffff"
     id="base" />
  <metadata
     id="metadata5">
    <rdf:RDF>
      <cc:Work
         rdf:about="">
        <dc:format>image/svg+xml</dc:format>
        <dc:type
           rdf:resource="http://purl.org/dc/dcmitype/StillImage" />
        <dc:title></dc:title>
      </cc:Work>
    </rdf:RDF>
  </metadata>
  <g
     id="layer1"
     inkscape:groupmode="layer"
     inkscape:label="Capa 1">
    <g
       transform="translate(-138.70995,-86.671304)"
       id="g891">
      <path
         id="path849-8"
         d="m 191.37812,190.903 c 0.0639,-0.1819 1.41614,-8.69449 3.00487,-18.91686 1.58874,-10.22237 2.9618,-18.58651 3.05126,-18.58698 0.0895,-5.2e-4 1.56615,8.51212 3.28155,18.91686 l 3.11891,18.91771 h 8.95543 c 4.92548,0 8.95542,-0.0644 8.95542,-0.1431 0,-0.0787 -1.79403,-9.37485 -3.98674,-20.65809 -2.19271,-11.28324 -3.99573,-20.71408 -4.00672,-20.95742 -0.011,-0.24334 4.28336,-8.5869 9.543,-18.54125 5.25963,-9.95435 9.56296,-18.20099 9.56296,-18.32587 0,-0.12488 -4.06233,-0.19572 -9.02741,-0.15743 l -9.02741,0.0696 -4.72293,9.65729 c -8.58205,17.54828 -11.4394,23.28562 -11.54453,23.18049 -0.0571,-0.0571 1.03402,-7.26172 2.42481,-16.01016 1.3908,-8.74844 2.52872,-16.14333 2.52872,-16.43309 0,-0.51473 -0.18854,-0.52682 -8.21038,-0.52682 -6.32601,0 -8.23876,0.0759 -8.33398,0.33072 -0.23849,0.63825 -12.47853,78.12043 -12.37186,78.31667 0.0593,0.10914 3.83857,0.19844 8.39831,0.19844 6.39398,0 8.31706,-0.0757 8.40672,-0.33073 z"
         style="fill:#ffffff;fill-opacity:1;fill-rule:nonzero;stroke:#242424;stroke-width:0.529167;stroke-miterlimit:4;stroke-dasharray:none;stroke-opacity:1"
         sodipodi:nodetypes="cccscssscssccsssssscscc" />
    </g>
  </g>
</svg>
