<?xml version="1.0" encoding="UTF-8" standalone="no"?>
<svg
   xmlns:osb="http://www.openswatchbook.org/uri/2009/osb"
   xmlns:dc="http://purl.org/dc/elements/1.1/"
   xmlns:cc="http://creativecommons.org/ns#"
   xmlns:rdf="http://www.w3.org/1999/02/22-rdf-syntax-ns#"
   xmlns:svg="http://www.w3.org/2000/svg"
   xmlns="http://www.w3.org/2000/svg"
   xmlns:sodipodi="http://sodipodi.sourceforge.net/DTD/sodipodi-0.dtd"
   xmlns:inkscape="http://www.inkscape.org/namespaces/inkscape"
   inkscape:version="1.0 (4035a4fb49, 2020-05-01)"
   shape-rendering="crispEdges"
   sodipodi:docname="kossack-logo.svg"
   id="svg8"
   version="1.1"
   viewBox="0 0 380 130"
   height="130mm"
   width="380mm">
  <defs
     id="defs2">
    <linearGradient
       osb:paint="solid"
       id="linearGradient2913">
      <stop
         id="stop2911"
         offset="0"
         style="stop-color:#ac5e00;stop-opacity:1;" />
    </linearGradient>
  </defs>
  <sodipodi:namedview
     inkscape:showpageshadow="true"
     borderlayer="false"
     showborder="true"
     inkscape:pagecheckerboard="false"
     inkscape:window-maximized="1"
     inkscape:window-y="-8"
     inkscape:window-x="1912"
     inkscape:window-height="1009"
     inkscape:window-width="1920"
     showgrid="false"
     inkscape:document-rotation="0"
     inkscape:current-layer="g891"
     inkscape:document-units="mm"
     inkscape:cy="504.31205"
     inkscape:cx="811.91233"
     inkscape:zoom="0.49497475"
     inkscape:pageshadow="2"
     inkscape:pageopacity="1"
     borderopacity="1.0"
     bordercolor="#666666"
     pagecolor="#ffffff"
     id="base" />
  <metadata
     id="metadata5">
    <rdf:RDF>
      <cc:Work
         rdf:about="">
        <dc:format>image/svg+xml</dc:format>
        <dc:type
           rdf:resource="http://purl.org/dc/dcmitype/StillImage" />
        <dc:title></dc:title>
      </cc:Work>
    </rdf:RDF>
  </metadata>
  <g
     id="layer1"
     inkscape:groupmode="layer"
     inkscape:label="Capa 1">
    <g
       transform="translate(-138.70995,-86.671304)"
       id="g891">
      <path
         id="path849-8"
         d="m 230.06944,181.07091 c 3.97436,-0.66869 5.88531,-1.45145 8.81802,-3.61201 3.92618,-2.89246 6.41505,-7.39172 7.9802,-14.42626 1.3196,-5.93092 5.78505,-32.64791 6.64221,-39.74065 0.57613,-4.76731 0.40926,-10.85986 -0.35545,-12.97731 -0.89805,-2.48667 -1.65969,-3.73974 -3.22382,-5.30386 -2.62041,-2.62041 -6.15488,-3.97928 -11.73337,-4.51104 -3.69157,-0.3519 -9.00257,0.0103 -12.27393,0.83703 -6.93812,1.75341 -11.44577,6.47914 -13.69978,14.36259 -0.97553,3.41194 -2.7604,13.17384 -5.03049,27.5129 -2.36669,14.94929 -2.78817,18.34083 -2.78817,22.43522 0,5.14837 1.1534,8.48202 3.87702,11.20565 3.34053,3.34053 9.39869,5.06396 16.62818,4.73041 1.60073,-0.0738 3.92245,-0.30455 5.15938,-0.51267 z m -7.31491,-13.55866 c -0.5114,-0.32126 -0.95947,-0.90742 -1.16142,-1.51932 -0.43457,-1.31676 -0.20621,-4.87844 0.65123,-10.15719 0.36638,-2.25557 1.80909,-11.29513 3.20604,-20.0879 2.81243,-17.70223 3.23502,-19.5339 4.84159,-20.98534 1.98124,-1.78993 5.27713,-1.49126 6.38489,0.57861 0.55071,1.02901 0.36997,4.36536 -0.53104,9.80296 -0.2773,1.67349 -1.46205,9.29349 -2.63277,16.93334 -3.19558,20.85364 -3.86673,23.7411 -5.8458,25.15032 -1.23062,0.87628 -3.73944,1.02158 -4.91272,0.28452 z m 57.05471,13.55104 c 7.35475,-1.5013 12.9205,-6.5919 15.50123,-14.17788 1.5964,-4.69257 1.9037,-12.51662 0.64703,-16.47363 -1.37663,-4.33473 -3.98508,-8.02581 -10.19033,-14.41979 -7.28057,-7.502 -8.26513,-8.85487 -8.86955,-12.1875 -0.60754,-3.3498 0.33063,-6.87012 2.21365,-8.30638 1.74955,-1.33444 4.26737,-1.14355 5.58597,0.42351 0.57602,0.68456 0.67012,1.05385 0.67012,2.62991 0,1.56715 -0.3859,4.91708 -0.9347,8.1139 l -0.14762,0.85989 h 8.34637 c 4.5905,0 8.3491,-0.0893 8.35244,-0.19844 0.003,-0.10914 0.23874,-1.74625 0.52309,-3.63802 0.64463,-4.28862 0.70206,-9.94066 0.12358,-12.16158 -1.54981,-5.95014 -7.46685,-10.06884 -15.81463,-11.00818 -8.20179,-0.922897 -16.92588,2.21142 -21.23086,7.62766 -3.94127,4.95865 -6.01634,13.74533 -4.77405,20.21518 1.07638,5.60578 3.2736,8.92676 11.80187,17.83796 6.3183,6.602 7.56903,8.94618 7.32928,13.73688 -0.20824,4.16097 -1.28025,6.58621 -3.28971,7.44243 -2.88666,1.22999 -5.63022,-0.72065 -5.62998,-4.00285 9e-5,-1.24871 0.90501,-9.10087 1.1968,-10.38489 l 0.13528,-0.59531 h -8.28818 -8.28818 l -0.76277,4.82864 c -0.86084,5.44943 -0.94122,8.83654 -0.27763,11.69789 1.38509,5.97239 5.69753,10.01583 12.58672,11.80159 4.13674,1.0723 9.2613,1.20113 13.48476,0.33901 z m 48.45116,0.0276 c 10.52867,-2.1777 17.16626,-11.43276 17.16382,-23.9322 -0.002,-7.89576 -2.30203,-12.18677 -11.77171,-21.95733 -5.71265,-5.89415 -6.52075,-6.85642 -7.43503,-8.85346 -0.93239,-2.03661 -1.16731,-5.43377 -0.52787,-7.63336 0.95378,-3.28089 3.68744,-4.89759 6.37941,-3.77282 2.05526,0.85874 2.34453,2.54807 1.45251,8.48259 -0.28436,1.89177 -0.51975,3.58841 -0.52309,3.77031 -0.005,0.25767 1.82297,0.33073 8.27344,0.33073 h 8.27952 l 0.58635,-4.16719 c 1.27199,-9.04004 0.50374,-13.55259 -2.92438,-17.17733 -5.59683,-5.91782 -16.9742,-7.565301 -26.14081,-3.78531 -6.44004,2.65566 -10.55332,7.81813 -12.32799,15.47254 -0.3693,1.59284 -0.49075,3.16431 -0.49075,6.35 0,3.69804 0.0784,4.48425 0.61961,6.21771 1.38049,4.4211 3.48382,7.41628 10.29108,14.65466 6.4697,6.87945 7.3437,8.09147 8.17809,11.34103 0.51881,2.02055 0.35886,4.84881 -0.41521,7.34181 -0.68154,2.19495 -1.15541,2.85048 -2.5029,3.4624 -2.11093,0.95861 -4.29648,0.3901 -5.23617,-1.36205 -0.63593,-1.18577 -0.62478,-3.24824 0.0457,-8.45035 0.29071,-2.25557 0.5287,-4.3094 0.52886,-4.56406 2.6e-4,-0.431 -0.56555,-0.46302 -8.18076,-0.46302 h -8.18106 l -0.14417,0.7276 c -0.0793,0.40018 -0.46101,2.8112 -0.84826,5.35781 -0.77518,5.09764 -0.76954,7.78423 0.0228,10.84177 1.09527,4.22683 4.03005,7.77428 8.07137,9.75639 4.93282,2.41935 11.94461,3.21347 17.75763,2.01113 z m 95.88091,0.3978 c 11.43156,-1.08332 17.43834,-6.3782 19.79718,-17.45084 0.39902,-1.87291 2.56011,-14.01773 2.56011,-14.38706 0,-0.0947 -3.95854,-0.14078 -8.79679,-0.10244 l -8.79684,0.0697 -1.49484,7.14375 c -0.82217,3.92906 -1.70098,7.79817 -1.95289,8.59801 -0.57015,1.81035 -1.99586,3.32075 -3.37952,3.58033 -2.92852,0.54939 -4.94787,-1.21986 -4.94787,-4.33515 0,-1.22327 1.6501,-10.71367 6.20072,-35.66309 2.06685,-11.33172 2.45973,-12.69599 4.12073,-14.30905 0.48363,-0.46967 1.28513,-0.98786 1.78107,-1.15154 1.24494,-0.41086 3.07591,-0.0856 4.02807,0.7156 1.42216,1.19667 1.44314,1.89095 0.26953,8.91968 -0.57986,3.47273 -1.05426,6.48067 -1.05426,6.68432 0,0.3098 1.42285,0.37026 8.71339,0.37026 8.06971,0 8.72363,-0.0342 8.85108,-0.46302 0.0757,-0.25466 0.52406,-2.7252 0.99634,-5.4901 1.05439,-6.17261 1.19618,-10.99059 0.3932,-13.36146 -2.31947,-6.84854 -8.86648,-10.42253 -19.08633,-10.4192 -8.24529,0.003 -14.31581,2.22538 -18.54515,6.79017 -4.11641,4.44288 -5.12593,7.87646 -9.3518,31.80716 -4.22791,23.94227 -4.55139,28.67527 -2.28227,33.39006 1.2188,2.53241 2.72563,4.31509 4.82981,5.71396 4.41457,2.93478 10.00445,4.02683 17.14733,3.34994 z m -255.66015,-1.3774 c 0.0639,-0.1819 1.41614,-8.69449 3.00487,-18.91686 1.58874,-10.22237 2.9618,-18.58651 3.05126,-18.58698 0.0895,-5.2e-4 1.56615,8.51212 3.28155,18.91686 l 3.11891,18.91771 h 8.95543 c 4.92548,0 8.95542,-0.0644 8.95542,-0.1431 0,-0.0787 -1.79403,-9.37485 -3.98674,-20.65809 -2.19271,-11.28324 -3.99573,-20.71408 -4.00672,-20.95742 -0.011,-0.24334 4.28336,-8.5869 9.543,-18.54125 5.25963,-9.95435 9.56296,-18.20099 9.56296,-18.32587 0,-0.12488 -4.06233,-0.19572 -9.02741,-0.15743 l -9.02741,0.0696 -4.72293,9.65729 c -8.58205,17.54828 -11.4394,23.28562 -11.54453,23.18049 -0.0571,-0.0571 1.03402,-7.26172 2.42481,-16.01016 1.3908,-8.74844 2.52872,-16.14333 2.52872,-16.43309 0,-0.51473 -0.18854,-0.52682 -8.21038,-0.52682 -6.32601,0 -8.23876,0.0759 -8.33398,0.33072 -0.23849,0.63825 -12.47853,78.12043 -12.37186,78.31667 0.0593,0.10914 3.83857,0.19844 8.39831,0.19844 6.39398,0 8.31706,-0.0757 8.40672,-0.33073 z m 196.55559,-7.2099 2.54335,-7.40833 5.73911,-0.0713 5.7391,-0.0713 -0.15351,2.18801 c -0.19926,2.83994 -0.66869,11.45477 -0.66869,12.27153 v 0.63211 h 8.73125 8.73125 v -39.42597 -39.42586 l -10.86515,0.0691 -10.86515,0.0691 -14.79943,39.28186 c -8.13969,21.60501 -14.79944,39.31712 -14.79944,39.36024 0,0.0431 4.07789,0.0471 9.06198,0.009 l 9.06198,-0.0696 z m 6.58478,-21.36934 c 0,-0.33372 10.03282,-31.18552 10.04203,-30.88011 0.007,0.22145 -0.40458,7.00542 -0.91391,15.07549 -0.50932,8.07008 -0.92604,14.94334 -0.92604,15.27394 0,0.59918 -0.0128,0.60107 -4.10104,0.60107 -2.25557,0 -4.10104,-0.0317 -4.10104,-0.0704 z m 93.36171,27.25632 c 0.15544,-0.9095 1.48865,-9.39271 2.96259,-18.85156 1.47397,-9.45885 2.7282,-17.24753 2.7872,-17.30816 0.059,-0.0606 0.14425,-0.0606 0.18944,0 0.0452,0.0606 1.41923,8.26602 3.05348,18.2342 1.6342,9.96818 3.03543,18.45138 3.11383,18.85157 l 0.14253,0.7276 h 8.82692 c 4.85479,0 8.87624,-0.0893 8.93657,-0.19844 0.0603,-0.10914 -1.71122,-9.54484 -3.93663,-20.96823 l -4.0463,-20.76979 9.64081,-18.29655 c 5.30243,-10.0631 9.64078,-18.36927 9.64078,-18.45816 0,-0.0889 -4.07474,-0.13028 -9.05502,-0.092 l -9.05497,0.0696 -8.0768,16.48634 c -4.4422,9.06748 -8.11025,16.32652 -8.15118,16.13119 -0.0409,-0.19533 1.0604,-7.50876 2.44737,-16.25207 1.387,-8.74331 2.52185,-16.03211 2.52185,-16.19734 0,-0.2178 -2.29182,-0.30041 -8.3344,-0.30041 -4.58388,0 -8.33435,0.0591 -8.33435,0.13138 0,0.17049 -12.13112,76.72241 -12.33752,77.85455 l -0.15682,0.8599 h 8.46897 8.46894 z"
         style="fill:#ffffff;fill-opacity:1;fill-rule:nonzero;stroke-width:1.05833333;stroke-miterlimit:4;stroke-dasharray:none;stroke:#242424;stroke-opacity:1"
         sodipodi:nodetypes="csssssscssssccssssssssssssssssssscscsssssssssscccssssccssssscscssssscsssssssscsscsccsssscsssssssssssssscsssssscccscssscssccsssssscsccccccsscccccccsscccscssssscssssscssccssscssssssscccc" />
      <path
         sodipodi:nodetypes="ssscsscsscscsssscccssssssssssssscsscssscssssscccssssssssssssscssscssscsscsscscsscccccccccsscccccccsscccssssssscssccsccssssscscsscccccccccsscccccccsssccccssscccssscccccsssssssccsssssssssssssssssssssssscsssscssssscssssccssscccccccsssccsssscsccccssscccccccsssccccccccsccsssssssssssssccsscscssssccccccccssscccscsscssccccccccssssccccsssccccccccccccssscccsssssssccccccccccccccccccccccccsssccccsssssscccccscccccccccccssssccccssscssccccccccccccccccccccccccccccccccc"
         style="fill:#f6c06d;fill-opacity:1;fill-rule:nonzero;stroke-width:1.05833333;stroke:#242424;stroke-miterlimit:4;stroke-dasharray:none;stroke-opacity:1"
         d="m 283.66627,205.63158 c 1.08736,-0.55076 1.59727,-1.01699 2.09796,-1.91823 0.63275,-1.13895 0.66519,-1.4174 0.74747,-6.41615 l 0.086,-5.22552 h -1.47507 c -1.40354,0 -1.47507,0.0326 -1.47507,0.67261 v 0.67262 l -1.25677,-0.73876 c -1.1493,-0.67559 -1.48302,-0.73876 -3.9026,-0.73876 -2.29866,0 -2.7893,0.0822 -3.73913,0.62651 -1.53796,0.88131 -2.28015,2.30651 -2.28015,4.37848 0,3.4402 1.84698,5.01097 5.90667,5.02336 1.91025,0.006 2.48497,-0.10014 3.63802,-0.67078 1.28272,-0.63481 1.36938,-0.64594 1.36938,-0.17585 0,0.27602 -0.17402,0.83837 -0.38671,1.24967 -0.77839,1.50524 -3.46845,1.95433 -7.48465,1.24951 l -1.91823,-0.33663 v 1.253 1.25299 l 1.38907,0.25334 c 0.76398,0.13933 2.70716,0.26748 4.31818,0.28476 2.70384,0.029 3.0396,-0.0245 4.36562,-0.69617 z m -6.81089,-6.52407 c -1.00716,-0.45394 -1.4099,-1.12942 -1.4099,-2.3647 0,-1.74525 2.37685,-2.86526 5.11532,-2.41041 1.6617,0.276 2.47847,0.79887 2.80809,1.79761 0.34349,1.0408 0.0942,1.90342 -0.77688,2.68855 -0.76192,0.68671 -4.44277,0.87211 -5.73663,0.28895 z M 492.183,205.4296 c 0.67019,-0.4659 1.3943,-1.28649 1.7422,-1.97429 0.5561,-1.09948 0.59531,-1.51312 0.59531,-6.28031 v -5.10332 h -1.45523 c -1.36459,0 -1.45521,0.04 -1.45521,0.64283 v 0.64284 l -1.2328,-0.68903 c -0.9353,-0.52277 -1.71741,-0.71683 -3.24112,-0.80425 -2.38212,-0.13666 -3.92454,0.22636 -5.075,1.19441 -1.10728,0.93169 -1.56456,2.09469 -1.55919,3.96564 0.0101,3.33526 2.02835,4.97875 6.09018,4.95778 1.95284,-0.0101 2.43221,-0.10898 3.54597,-0.73147 0.70832,-0.39589 1.33189,-0.6758 1.38568,-0.62201 0.27318,0.27319 -0.67043,2.17907 -1.31617,2.65832 -0.95488,0.70867 -3.75727,0.86055 -6.60117,0.35775 l -2.05052,-0.36252 v 1.25384 1.25384 l 1.38906,0.26591 c 0.76396,0.14625 2.89703,0.24463 4.74009,0.21862 3.26157,-0.046 3.38159,-0.0686 4.49792,-0.84458 z m -7.38796,-6.34489 c -1.42645,-0.61994 -1.83068,-2.50712 -0.79174,-3.69593 1.33887,-1.53192 5.85499,-1.50402 7.07244,0.0437 0.99031,1.25899 0.42109,3.2294 -1.08458,3.75428 -1.16832,0.40727 -4.15935,0.34853 -5.19612,-0.10204 z m -268.08706,2.71556 c 1.68176,-0.7176 2.38658,-2.15592 1.85128,-3.7779 -0.42973,-1.30208 -1.58329,-1.72092 -5.8578,-2.12687 -4.12511,-0.39176 -4.72473,-0.52609 -4.72473,-1.05848 0,-0.54925 1.14967,-0.77239 3.88194,-0.75344 1.79712,0.0125 2.6013,0.13121 3.09955,0.45768 0.40284,0.26395 1.20737,0.44084 2.00504,0.44084 1.47732,0 1.71451,-0.3948 0.91929,-1.53014 -0.7877,-1.1246 -1.90438,-1.4695 -5.15252,-1.59145 -5.39736,-0.20262 -7.66371,0.71804 -7.66371,3.11326 0,2.09791 1.33585,2.70627 6.74687,3.07262 2.94361,0.19929 3.83646,0.43689 3.83646,1.0209 0,0.77345 -1.04415,0.99945 -4.16055,0.90053 -2.76172,-0.0877 -3.07744,-0.14957 -3.5142,-0.68894 -0.39465,-0.48738 -0.74567,-0.59261 -1.97664,-0.59261 -1.42846,0 -1.48866,0.0272 -1.3191,0.59531 0.49197,1.6484 1.53956,2.41263 3.88051,2.83086 2.01516,0.36002 7.02256,0.16818 8.14831,-0.31217 z m 11.70781,0.42034 c 0.97011,-0.16035 0.99219,-0.18972 0.99219,-1.32 v -1.15601 h -1.96937 c -2.53165,0 -2.79313,-0.30273 -2.79313,-3.23387 v -2.0578 h 2.38125 2.38125 v -1.18032 -1.18032 l -2.3151,-0.0764 -2.31511,-0.0764 -0.0782,-1.48262 -0.0782,-1.48262 -1.42989,0.39799 c -1.40984,0.39241 -1.43101,0.4132 -1.50931,1.48262 l -0.0794,1.08463 -1.25677,0.0806 -1.25677,0.0807 v 1.17612 1.17613 h 1.32292 1.32291 v 2.79552 c 0,3.49986 0.35671,4.26918 2.24896,4.85044 0.94792,0.29118 3.05625,0.34908 4.43177,0.12172 z m 23.27706,-0.19499 c 1.70123,-0.40035 3.18424,-1.40011 3.77687,-2.54614 0.21813,-0.42182 0.3966,-0.83238 0.3966,-0.91237 0,-0.08 -0.69592,-0.14543 -1.54649,-0.14543 -1.19788,0 -1.65187,0.11644 -2.01396,0.51655 -1.22869,1.35768 -5.63789,1.24462 -6.75311,-0.17317 -0.2939,-0.37363 -0.53436,-0.78233 -0.53436,-0.90823 0,-0.12589 2.44078,-0.2289 5.42396,-0.2289 h 5.42396 v -0.93918 c 0,-1.67999 -1.04779,-3.25644 -2.77812,-4.17981 -0.90324,-0.482 -1.50424,-0.56511 -4.10105,-0.56715 -2.66971,-0.002 -3.19892,0.0745 -4.31694,0.62497 -3.63556,1.78997 -3.69135,7.06033 -0.0946,8.9385 1.66039,0.86704 4.69984,1.08926 7.11726,0.52036 z m -6.40987,-6.47335 c 0,-0.50392 1.04488,-1.11048 2.3341,-1.35498 2.03918,-0.38672 4.31489,0.1249 4.82908,1.08568 0.25149,0.4699 0.0907,0.49288 -3.4497,0.49288 -2.04241,0 -3.71348,-0.10061 -3.71348,-0.22358 z m 51.6599,6.66834 c 0.97011,-0.16035 0.99219,-0.18972 0.99219,-1.32 v -1.15601 h -1.95198 c -2.48647,0 -2.64892,-0.18071 -2.77153,-3.08311 l -0.0933,-2.20856 h 2.4084 2.4084 v -1.18032 -1.18032 l -2.3151,-0.0764 -2.31511,-0.0764 -0.0782,-1.48262 -0.0782,-1.48262 -1.42989,0.39799 c -1.40984,0.39241 -1.43101,0.4132 -1.50931,1.48262 l -0.0794,1.08463 -1.25677,0.0806 -1.25677,0.0807 v 1.17612 1.17613 h 1.32292 1.32291 v 2.89012 c 0,2.72152 0.0399,2.9375 0.6834,3.70229 0.37587,0.44669 1.06048,0.92134 1.52135,1.05477 1.00315,0.29042 3.10552,0.34702 4.47598,0.1205 z m 36.88191,-0.78144 1.75058,-0.70034 1.54968,0.74069 c 0.85234,0.40737 1.58994,0.68969 1.63912,0.62736 0.0492,-0.0623 0.3591,-0.56169 0.6887,-1.1097 l 0.59929,-0.99637 -1.22142,-0.5403 -1.22144,-0.54029 0.80039,-0.97101 c 0.44021,-0.53406 0.80038,-1.09365 0.80038,-1.24354 0,-0.14989 -0.556,-0.47247 -1.23557,-0.71684 l -1.23558,-0.44431 -0.95458,1.07568 -0.95459,1.07568 -1.53989,-0.77866 -1.53989,-0.77866 1.70066,-0.83723 c 2.96573,-1.46003 3.12679,-3.58651 0.36657,-4.83997 -1.57085,-0.71335 -5.15467,-0.69895 -6.65374,0.0267 -1.62285,0.7856 -2.17701,2.45665 -1.31485,3.96484 0.46111,0.80662 0.48635,1.05834 0.10614,1.05834 -0.70789,0 -2.19566,0.95367 -2.64993,1.69861 -0.91872,1.50662 -0.41643,3.47624 1.08446,4.25238 2.21848,1.14722 6.53662,1.13665 9.43551,-0.0231 z m -7.46788,-2.30686 c -0.59791,-0.5143 -0.66541,-0.69905 -0.42174,-1.15434 0.15955,-0.29813 0.66295,-0.69649 1.11866,-0.88525 0.77132,-0.31949 0.95941,-0.27365 2.72209,0.66339 1.04144,0.55363 2.00221,1.10404 2.13505,1.22313 0.41805,0.3748 -1.12412,0.76536 -3.02211,0.76536 -1.52103,0 -1.93709,-0.10061 -2.53195,-0.61229 z m 2.40443,-5.20406 c -0.38101,-0.7368 -0.37266,-0.82476 0.1255,-1.32292 1.08086,-1.08086 4.34607,-0.40177 3.7173,0.77311 -0.2766,0.51682 -2.06816,1.33908 -2.91763,1.33908 -0.30621,0 -0.68344,-0.32182 -0.92517,-0.78927 z m 31.55441,7.79426 c 1.03138,-0.41268 2.70682,-1.95678 2.70682,-2.49464 0,-0.12856 0.0723,-0.42207 0.1606,-0.65225 0.13545,-0.35298 -0.088,-0.41852 -1.42689,-0.41852 -1.18766,0 -1.62702,0.10297 -1.74439,0.40882 -0.42372,1.10423 -4.61036,1.60478 -6.38378,0.76324 -1.71943,-0.81592 -1.92209,-3.37978 -0.34307,-4.34004 1.83219,-1.11422 5.51695,-0.87931 6.53638,0.4167 0.42077,0.53493 0.73217,0.63461 1.98246,0.63461 0.85924,0 1.48327,-0.11684 1.48327,-0.27772 0,-0.48527 -0.72156,-1.68673 -1.36391,-2.27102 -1.45301,-1.32165 -2.28954,-1.5513 -5.64754,-1.55035 -2.74158,8e-4 -3.31947,0.0784 -4.23333,0.56903 -2.0167,1.08262 -2.77813,2.35211 -2.77813,4.63178 0,3.57144 2.68905,5.36807 7.68144,5.13219 1.24794,-0.059 2.75502,-0.30574 3.37007,-0.55183 z m 14.78103,0.009 c 2.15491,-0.90038 3.10351,-2.38647 3.08551,-4.83385 -0.024,-3.27264 -1.93322,-4.80259 -6.27653,-5.02977 -3.97491,-0.20791 -6.3131,0.73766 -7.32312,2.96151 -1.08745,2.39433 -0.27313,5.31543 1.79755,6.44804 0.60977,0.33351 1.62179,0.71528 2.24895,0.84836 1.58961,0.33727 5.25098,0.11407 6.46764,-0.39429 z m -6.38566,-2.22398 c -1.30201,-0.56408 -1.90865,-1.96052 -1.45233,-3.34318 0.48346,-1.46488 2.60939,-2.21146 5.19368,-1.82392 2.51277,0.37681 3.6209,2.76424 2.10256,4.5299 -0.60016,0.69792 -0.77833,0.74607 -2.97656,0.80441 -1.28601,0.0341 -2.57632,-0.0411 -2.86735,-0.16721 z m 35.75668,1.97729 c 0.67064,-0.37484 1.26388,-0.68151 1.31834,-0.68151 0.0544,0 0.099,0.29765 0.099,0.66145 0,0.62539 0.0794,0.66146 1.45522,0.66146 h 1.4552 v -6.87916 -6.87916 h -1.4552 -1.45522 v 2.52469 2.5247 l -1.22586,-0.71841 c -1.45524,-0.85283 -4.50816,-1.15184 -6.43745,-0.63051 -4.2303,1.14309 -5.03281,7.47042 -1.20084,9.46774 2.06743,1.07763 5.46894,1.05419 7.44686,-0.0513 z m -5.37494,-2.12554 c -1.0022,-0.43597 -1.40987,-1.11238 -1.40987,-2.33935 0,-1.31619 0.80846,-2.18931 2.37519,-2.56516 2.94743,-0.70707 5.61525,0.44405 5.61525,2.42288 0,2.03876 -1.15124,2.87304 -3.9424,2.85697 -0.98951,-0.006 -2.17668,-0.1746 -2.63817,-0.37534 z m 24.35009,2.86327 1.22756,-0.16826 v -1.15466 -1.15465 h -2.08428 c -1.52032,0 -2.17249,-0.10628 -2.4103,-0.39282 -0.17928,-0.21604 -0.38923,-1.40666 -0.46654,-2.64583 l -0.14057,-2.25302 h 2.55082 2.55087 v -1.18069 -1.1807 l -2.44742,-0.0761 -2.44737,-0.0761 -0.08,-1.38907 c -0.0875,-1.52017 -0.0885,-1.5208 -1.78723,-1.09306 -1.16703,0.29386 -1.17549,0.30434 -1.17549,1.45521 v 1.15921 h -1.32292 -1.32292 v 1.19063 1.19062 h 1.30015 1.30015 l 0.0889,3.0374 c 0.084,2.86813 0.12761,3.07603 0.78296,3.73071 1.03481,1.03379 3.09181,1.3838 5.88362,1.00113 z m 16.41793,-0.23371 c 1.92624,-0.50171 2.92949,-1.20384 3.60103,-2.5202 0.61534,-1.20618 0.69003,-3.31012 0.16227,-4.57316 -0.89919,-2.15201 -3.55722,-3.23195 -7.45329,-3.02816 -4.28273,0.22402 -6.20871,1.843 -6.20871,5.2191 0,1.71438 0.22757,2.38508 1.15755,3.4113 1.54567,1.70569 5.39586,2.36247 8.74115,1.49112 z m -5.7249,-2.65629 c -0.91387,-0.49596 -1.26341,-1.15128 -1.26341,-2.36865 0,-2.08853 2.72727,-3.28301 5.75715,-2.52151 1.5535,0.39043 2.12193,0.8855 2.33775,2.03603 0.23868,1.27232 -0.32848,2.46075 -1.38512,2.90223 -1.16295,0.48591 -4.51689,0.45629 -5.44637,-0.0481 z m -200.43692,-0.3073 0.0745,-3.10098 1.05276,-0.58998 c 1.4458,-0.81026 4.18983,-1.26493 5.62797,-0.93254 l 1.12448,0.25989 v -1.28279 c 0,-1.2631 -0.0146,-1.28555 -0.95134,-1.46128 -1.70126,-0.31917 -4.20767,0.0351 -5.54788,0.78417 -0.68219,0.38128 -1.28488,0.69324 -1.33931,0.69324 -0.0544,0 -0.099,-0.29766 -0.099,-0.66147 0,-0.62538 -0.0794,-0.66145 -1.45521,-0.66145 h -1.45521 v 5.02709 5.02707 h 1.44681 1.44682 z m 26.40059,0.20858 v -2.8924 l 0.77627,-0.55275 c 1.68624,-1.20071 4.8501,-1.74126 6.14269,-1.04949 0.90965,0.48683 1.28312,1.86436 1.28312,4.73271 v 2.65432 h 1.45521 1.45521 v -3.58241 c 0,-3.00279 -0.0815,-3.74124 -0.50399,-4.56406 -0.82273,-1.6025 -1.85156,-2.03999 -4.79744,-2.03999 -2.28588,0 -2.67798,0.0767 -4.16719,0.8148 l -1.64388,0.81478 v -0.74865 c 0,-0.73104 -0.0342,-0.74863 -1.45521,-0.74863 h -1.45521 v 5.02709 5.02707 h 1.45521 1.45521 z m 42.06875,0.0171 v -2.87526 l 0.99219,-0.65158 c 1.39254,-0.91451 2.56786,-1.27082 4.19192,-1.27082 1.09895,0 1.56101,0.13753 2.14333,0.63795 0.72618,0.62404 0.74428,0.70766 0.83066,3.83646 l 0.0883,3.19851 h 1.59537 1.59537 l -0.0999,-3.63906 c -0.11763,-4.28352 -0.43663,-5.11283 -2.34742,-6.10276 -1.03147,-0.53438 -1.48014,-0.60097 -3.47152,-0.51517 -1.89088,0.0815 -2.56677,0.23721 -3.90261,0.89931 l -1.61565,0.80079 v -2.60072 -2.60072 h -1.45521 -1.45521 v 6.87916 6.87917 h 1.45521 1.45521 z m 80.16875,-0.0171 v -2.8924 l 0.77627,-0.55275 c 2.04105,-1.45336 5.27134,-1.79724 6.55117,-0.69742 0.72618,0.62403 0.74428,0.70766 0.83067,3.83645 l 0.0883,3.19851 h 1.43304 1.43305 v -3.59802 c 0,-4.13693 -0.27016,-5.02884 -1.81411,-5.98895 -0.82527,-0.5132 -1.32578,-0.59949 -3.47755,-0.59949 -2.18911,0 -2.71406,0.0939 -4.06688,0.72762 -0.85432,0.40018 -1.59847,0.7276 -1.65364,0.7276 -0.0552,0 -0.10033,-0.29766 -0.10033,-0.66147 0,-0.62538 -0.0794,-0.66145 -1.4552,-0.66145 h -1.4552 v 5.02709 5.02707 h 1.4552 1.4552 z m 30.69167,-2.13468 v -5.02709 h -1.45522 -1.45517 v 5.02709 5.02707 h 1.45517 1.45522 z m 15.61044,0 v -5.02709 h -1.45523 -1.45521 v 5.02709 5.02707 h 1.45521 1.45523 z m 19.57917,2.15767 c 0,-3.14896 0.0358,-3.22996 1.8288,-4.13912 1.17078,-0.59362 3.75245,-0.82782 4.71776,-0.42798 1.22211,0.50621 1.47685,1.2142 1.60475,4.45995 l 0.11737,2.97655 h 1.44142 1.4414 l -0.0856,-3.8181 c -0.0981,-4.3734 -0.28456,-4.84344 -2.35014,-5.92577 -1.0365,-0.54312 -1.44042,-0.60112 -3.4241,-0.49173 -2.04669,0.11286 -2.93868,0.36659 -5.09323,1.44878 -0.10914,0.0548 -0.19841,-0.2079 -0.19841,-0.58383 0,-0.65901 -0.0569,-0.68351 -1.5875,-0.68351 h -1.5875 v 5.02709 5.02707 h 1.5875 1.5875 z m 15.34583,-2.15767 v -5.02709 h -1.45523 -1.45521 v 5.02709 5.02707 h 1.45521 1.45523 z m 4.49792,2.15182 v -2.87526 l 0.99216,-0.65158 c 1.39258,-0.91451 2.56789,-1.27082 4.19195,-1.27082 1.09895,0 1.56099,0.13753 2.14331,0.63795 0.72618,0.62404 0.7443,0.70766 0.83066,3.83646 l 0.0883,3.1985 h 1.59535 1.59539 l -0.10001,-3.63905 c -0.11764,-4.28352 -0.43662,-5.11283 -2.34741,-6.10276 -1.03148,-0.53438 -1.48014,-0.60097 -3.47152,-0.51517 -1.89087,0.0815 -2.56678,0.23721 -3.90261,0.89931 l -1.61565,0.80079 v -0.74864 c 0,-0.73105 -0.0342,-0.74864 -1.45521,-0.74864 h -1.45521 v 5.02709 5.02707 h 1.45521 1.45521 z m -55.03336,-9.56016 v -1.32291 h -1.45522 -1.45517 v 1.32291 1.32292 h 1.45517 1.45522 z m 15.61044,0 v -1.32291 h -1.45523 -1.45521 v 1.32291 1.32292 h 1.45521 1.45523 z m 34.925,0 v -1.32291 h -1.45523 -1.45521 v 1.32291 1.32292 h 1.45521 1.45523 z"
         id="path849-8-4" />
    </g>
  </g>
</svg>
